<svg xmlns="http://www.w3.org/2000/svg" viewBox="0 0 48 48" width="48" height="48">
  <g fill="none" stroke="#e63946" stroke-width="2" stroke-linecap="round" stroke-linejoin="round">
    <path d="M12,8 L30,8 C31.1045695,8 32,8.8954305 32,10 L32,38 C32,39.1045695 31.1045695,40 30,40 L12,40 C10.8954305,40 10,39.1045695 10,38 L10,10 C10,8.8954305 10.8954305,8 12,8 Z" />
    <path d="M18,14 L36,14 C37.1045695,14 38,14.8954305 38,16 L38,44 C38,45.1045695 37.1045695,46 36,46 L18,46 C16.8954305,46 16,45.1045695 16,44 L16,16 C16,14.8954305 16.8954305,14 18,14 Z" />
    <line x1="16" y1="20" x2="32" y2="20" />
    <line x1="16" y1="26" x2="32" y2="26" />
    <line x1="16" y1="32" x2="25" y2="32" />
    <line x1="16" y1="38" x2="28" y2="38" />
  </g>
</svg>